<?xml version="1.0" standalone="no"?>
<!DOCTYPE svg PUBLIC "-//W3C//DTD SVG 20010904//EN"
 "http://www.w3.org/TR/2001/REC-SVG-20010904/DTD/svg10.dtd">
<svg version="1.0" xmlns="http://www.w3.org/2000/svg"
 width="2000.000000pt" height="2000.000000pt" viewBox="0 0 2000.000000 2000.000000"
 preserveAspectRatio="xMidYMid meet">

<g transform="translate(0.000000,2000.000000) scale(0.100000,-0.100000)"
fill="#ffffff" stroke="none">
<path d="M9635 19994 c-234 -12 -454 -27 -625 -45 -2053 -205 -3958 -1020
-5530 -2369 -1222 -1048 -2191 -2410 -2785 -3915 -379 -960 -596 -1939 -677
-3050 -16 -222 -16 -1008 0 -1230 102 -1401 427 -2623 1013 -3805 911 -1840
2339 -3336 4134 -4333 1178 -654 2489 -1062 3845 -1196 382 -38 540 -45 990
-45 450 0 608 7 990 45 2048 203 3958 1021 5530 2369 1222 1048 2194 2414
2785 3915 336 853 553 1755 644 2675 38 382 45 540 45 990 0 450 -7 608 -45
990 -203 2048 -1021 3958 -2369 5530 -1048 1222 -2410 2191 -3915 2785 -953
376 -1949 598 -3030 675 -149 11 -867 21 -1000 14z m423 -817 c6 -7 1210
-2890 2677 -6407 1531 -3671 2694 -6448 2731 -6519 233 -448 518 -741 915
-941 266 -133 537 -200 815 -200 64 0 104 -4 112 -12 7 -7 12 -43 12 -93 0
-50 -5 -86 -12 -93 -17 -17 -4469 -17 -4486 0 -16 16 -16 170 0 186 8 8 47 12
111 12 169 0 324 34 457 100 139 70 286 215 350 345 52 105 70 177 77 306 7
124 -6 228 -47 384 -39 152 -1286 3475 -1312 3498 -19 16 -161 17 -2672 17
-1458 0 -2661 -3 -2672 -6 -12 -3 -26 -16 -32 -30 -46 -99 -1334 -3406 -1351
-3464 -84 -303 -63 -570 60 -760 73 -113 204 -232 319 -290 124 -63 293 -100
454 -100 66 0 106 -4 114 -12 16 -16 16 -170 0 -186 -17 -17 -3999 -17 -4016
0 -16 16 -16 170 0 186 8 8 50 12 122 12 276 0 535 60 791 184 220 105 376
217 546 392 155 160 270 322 401 564 26 47 1066 2506 2313 5465 1247 2959
2313 5486 2370 5615 355 807 580 1417 635 1723 11 60 25 116 31 123 15 19 172
19 187 1z m-628 -19 c0 -34 -36 -177 -76 -305 l-35 -113 -1386 0 c-762 0
-1384 2 -1382 5 8 8 191 76 389 145 253 88 486 157 773 230 l232 59 743 1 742
0 0 -22z m2872 -42 c373 -95 707 -200 1043 -329 l110 -42 -1374 -3 c-756 -1
-1376 0 -1378 2 -4 4 -183 428 -183 433 0 2 344 3 764 3 l764 0 254 -64z
m-3158 -838 c-9 -30 -163 -410 -167 -415 -2 -1 -933 -2 -2068 -1 l-2064 3 172
107 c94 59 259 157 365 217 l193 110 1788 1 1788 0 -7 -22z m5472 -88 c107
-61 272 -158 367 -218 l172 -107 -2039 -3 c-1122 -1 -2043 1 -2047 5 -8 9
-179 417 -179 427 0 3 794 6 1765 6 l1766 0 195 -110z m-5836 -776 c0 -4 -17
-45 -38 -93 -22 -47 -63 -143 -92 -213 l-53 -128 -2446 0 -2446 1 40 36 c87
78 235 203 354 300 l126 103 2278 0 c1252 0 2277 -3 2277 -6z m7121 -97 c119
-97 267 -222 354 -300 l40 -36 -2430 0 -2430 -1 -91 220 -92 220 2262 0 2261
0 126 -103z m-7506 -814 c-9 -21 -50 -120 -92 -220 l-77 -183 -2690 0 -2689 0
19 23 c11 12 81 89 155 170 73 82 154 170 178 198 l44 49 2583 0 2584 0 -15
-37z m8445 -55 c72 -78 208 -228 294 -325 l19 -23 -2675 0 -2675 0 -76 183
c-42 100 -83 199 -92 220 l-15 37 2567 0 2566 0 87 -92z m-8808 -806 c-4 -10
-45 -109 -92 -220 l-85 -202 -2838 0 -2839 0 58 83 c31 45 102 144 156 220
l99 137 2774 0 c2677 0 2774 -1 2767 -18z m9576 -119 c54 -76 125 -175 156
-221 l58 -82 -2827 2 -2827 3 -89 214 c-49 117 -89 215 -89 217 0 2 1242 4
2759 4 l2760 0 99 -137z m-9984 -850 c-25 -60 -66 -159 -92 -220 l-47 -113
-2913 0 -2913 0 17 33 c9 17 63 116 121 220 l105 187 2883 0 2884 0 -45 -107z
m10579 -80 c58 -104 112 -203 121 -220 l17 -33 -2903 0 -2903 0 -88 213 c-48
116 -87 215 -87 220 0 4 1291 7 2869 7 l2869 0 105 -187z m-10939 -775 c-20
-46 -61 -145 -92 -220 l-57 -138 -2927 0 c-1611 0 -2928 2 -2928 4 0 4 88 215
145 349 l38 87 2928 0 2928 0 -35 -82z m11331 -5 c57 -134 145 -345 145 -349
0 -2 -1313 -4 -2919 -4 l-2918 0 -76 183 c-42 100 -83 199 -91 220 l-16 37
2918 0 2919 0 38 -87z m-11756 -1003 c-48 -116 -91 -215 -94 -220 -7 -11
-5785 -14 -5785 -3 0 5 85 281 123 401 l10 32 2918 0 2917 0 -89 -210z m12078
178 c39 -120 123 -396 123 -401 0 -4 -1299 -6 -2886 -5 l-2885 3 -90 214 c-49
118 -89 216 -89 218 0 2 1309 3 2908 3 l2909 0 10 -32z m-12367 -857 c0 -4
-40 -102 -88 -217 l-89 -209 -2810 -3 -2811 -2 14 72 c7 40 28 139 45 221 l32
147 2853 0 c1603 0 2854 -4 2854 -9z m12639 -138 c17 -82 38 -181 45 -221 l14
-72 -2806 2 -2806 3 -88 210 c-48 116 -88 213 -88 218 0 4 1282 7 2849 7
l2848 0 32 -147z m-13009 -741 c0 -4 -40 -102 -88 -217 l-89 -210 -2681 -3
-2682 -2 0 37 c0 21 9 115 20 208 11 94 20 176 20 183 0 9 557 12 2750 12
1513 0 2750 -3 2750 -8z m13140 -4 c0 -7 9 -89 20 -183 11 -93 20 -187 20
-207 l0 -38 -2678 0 -2678 0 -46 113 c-26 61 -67 160 -92 220 l-45 107 2749 0
c2193 0 2750 -3 2750 -12z m-13515 -889 c-4 -11 -44 -109 -90 -217 l-83 -197
-2516 -3 -2516 -2 0 159 c0 87 3 186 6 220 l7 61 2599 0 2599 0 -6 -21z
m13589 -40 c3 -34 6 -133 6 -220 l0 -159 -2514 0 c-2002 0 -2515 3 -2519 13
-3 6 -42 100 -87 207 -45 107 -84 201 -87 208 -4 9 519 12 2595 12 l2599 0 7
-61z m-13958 -836 c-3 -10 -44 -108 -90 -218 l-84 -200 -2309 0 -2308 0 -11
140 c-7 77 -14 175 -16 218 l-5 77 2414 0 c2295 0 2414 -1 2409 -17z m13946
-60 c-2 -43 -9 -141 -16 -218 l-11 -140 -2309 0 -2310 0 -88 210 c-48 116 -88
213 -88 218 0 4 1086 7 2413 7 l2414 0 -5 -77z m-14312 -807 c0 -2 -39 -96
-86 -208 -47 -112 -88 -209 -91 -215 -4 -10 -426 -13 -2062 -13 l-2058 0 -33
193 c-18 105 -35 204 -37 220 l-5 27 2186 0 c1202 0 2186 -2 2186 -4z m14227
-23 c-2 -16 -19 -115 -37 -220 l-33 -193 -2061 0 -2061 0 -91 220 -92 220
2190 0 2191 0 -6 -27z m-14597 -857 c0 -2 -39 -95 -86 -207 -47 -112 -88 -210
-91 -216 -4 -10 -367 -13 -1768 -13 l-1762 0 -31 108 c-17 59 -45 158 -61 220
l-30 112 1915 0 c1053 0 1914 -2 1914 -4z m14399 -108 c-16 -62 -44 -161 -61
-220 l-31 -108 -1767 0 -1767 0 -76 183 c-42 100 -83 199 -92 220 l-15 37
1919 0 1920 0 -30 -112z m-14772 -780 c-57 -139 -98 -233 -139 -320 l-51 -108
-1416 0 -1416 0 -77 198 c-42 108 -79 207 -83 220 l-6 22 1596 0 c1274 0 1596
-3 1592 -12z m14528 -10 c-4 -13 -41 -112 -83 -220 l-77 -198 -1422 0 -1423 0
-29 58 c-29 57 -161 366 -161 377 0 3 720 5 1601 5 l1600 0 -6 -22z m-15100
-924 c-93 -86 -225 -173 -370 -244 -266 -130 -270 -130 -1041 -130 l-624 0
-110 220 -110 220 1162 0 1163 -1 -70 -65z m14635 -154 l-110 -220 -629 0
c-682 0 -722 3 -880 57 -139 47 -386 184 -481 266 -19 17 -57 50 -84 74 l-48
43 1171 0 1171 0 -110 -220z"/>
<path d="M9822 16713 c-17 -32 -2464 -6276 -2470 -6302 -3 -14 1 -27 9 -32 18
-12 4830 -11 4848 0 8 5 12 17 9 27 -14 55 -2363 6301 -2374 6313 -10 11 -14
10 -22 -6z"/>
</g>
</svg>
